<svg width="364" height="490" viewBox="0 0 364 490" fill="none" xmlns="http://www.w3.org/2000/svg">
<path d="M554.805 165.635C530.408 165.635 501.865 175.187 477.332 214.486L323.813 456.828C322.402 458.498 321.484 460.53 321.163 462.696C321.427 464.818 322.355 466.801 323.813 468.359C328.7 475.042 335.085 480.477 342.452 484.222C349.82 487.968 357.962 489.919 366.22 489.919C375.233 489.955 384.097 487.61 391.922 483.119C399.748 478.628 406.258 472.149 410.801 464.333C410.801 464.333 531.427 272.684 547.262 246.962C568.872 212.234 576.144 202.069 595.648 202.069C603.327 202.069 605.162 197.77 605.162 193.745C604.823 182.624 587.221 165.635 554.805 165.635Z" fill="#1988C6"/>
<path d="M306.579 215.051C308.142 212.595 337.976 166.405 359.111 133.179C377.936 103.5 391.256 94.0845 415.517 89.9227C422.653 88.6264 427.75 85.4879 427.75 78.7335C427.75 65.088 401.517 42.1637 369.577 42.1637C366.79 42.3706 364.012 41.6644 361.66 40.1513C359.307 38.6381 357.506 36.3996 356.529 33.7718C351.674 23.2525 343.804 14.4263 333.926 8.42228C324.047 2.41823 312.609 -0.490693 301.075 0.0676231C289.545 -0.463138 278.118 2.45726 268.245 8.45811C258.372 14.459 250.497 23.2697 245.62 33.7718C244.671 36.3768 242.906 38.6027 240.591 40.1157C238.275 41.6287 235.533 42.3473 232.776 42.1637C200.903 42.1637 174.468 65.088 174.468 78.7335C174.468 85.5562 179.7 88.6264 186.972 89.9227C211.165 94.1528 224.349 103.568 243.242 133.179C264.377 166.269 294.007 212.459 295.706 215.051C298.152 218.735 299.444 219.008 301.142 219.008C302.841 219.008 304.269 218.735 306.579 215.051Z" fill="#1988C6"/>
<path d="M76.9897 134.409C76.9897 138.025 78.8926 141.231 85.0768 141.231C114.299 141.231 132.648 158.697 146.919 182.168C161.191 205.638 231.868 319.44 232.751 320.805C233.189 321.665 233.849 322.391 234.662 322.907C235.475 323.423 236.411 323.71 237.372 323.739C238.362 323.759 239.336 323.493 240.18 322.973C241.023 322.453 241.7 321.7 242.129 320.805C243.217 319.236 280.458 260.288 281.206 259.401C282.021 258.314 282.495 257.007 282.565 255.648C282.528 254.357 282.128 253.103 281.409 252.032C280.73 250.872 235.877 180.053 222.421 159.243C196.121 118.307 163.433 104.662 132.716 104.662C91.8047 104.048 76.9897 125.607 76.9897 134.409Z" fill="#1988C6"/>
<path d="M459.876 181.812C474.08 158.547 492.429 140.876 521.583 140.876C527.835 140.876 529.738 137.669 529.738 134.053C529.738 125.252 514.991 103.761 473.944 103.761C443.158 103.761 410.606 116.997 384.374 158.342C370.782 178.81 266.262 344.67 244.176 380.08C243.726 381.207 242.985 382.193 242.03 382.937C241.074 383.68 239.938 384.155 238.739 384.31C236.02 384.31 234.593 382.741 232.962 380.08C188.042 309.806 127.966 214.288 127.966 214.288C103.297 175.194 74.7545 165.643 50.3574 165.643C17.8731 165.643 0 182.631 0 193.82C0 197.846 1.69897 202.144 9.58217 202.144C28.9504 202.144 36.2899 212.31 57.9008 247.037C73.8711 272.759 194.294 464.409 194.294 464.409C198.875 472.236 205.422 478.719 213.281 483.209C221.14 487.699 230.036 490.039 239.079 489.994C248.13 490.13 257.054 487.836 264.927 483.35C272.801 478.864 279.338 472.349 283.863 464.477C294.261 447.898 445.605 205.01 459.876 181.812Z" fill="#1988C6"/>
</svg>
