<svg width="869" height="618" viewBox="0 0 869 618" fill="none" xmlns="http://www.w3.org/2000/svg">
<path d="M951.52 284.073C909.677 284.073 860.725 300.455 818.65 367.854L555.357 783.485C552.936 786.348 551.362 789.834 550.812 793.548C551.264 797.187 552.856 800.588 555.357 803.26C563.738 814.723 574.689 824.043 587.324 830.467C599.959 836.891 613.923 840.237 628.086 840.237C643.544 840.299 658.747 836.277 672.168 828.575C685.588 820.872 696.754 809.761 704.545 796.357C704.545 796.357 911.426 467.667 938.583 423.553C975.646 363.993 988.118 346.558 1021.57 346.558C1034.74 346.558 1037.89 339.186 1037.89 332.282C1037.3 313.209 1007.12 284.073 951.52 284.073Z" fill="#1988C6"/>
<path d="M525.8 368.824C528.481 364.612 579.647 285.394 615.895 228.409C648.18 177.508 671.025 161.36 712.634 154.222C724.872 151.999 733.614 146.616 733.614 135.032C733.614 111.63 688.624 72.3131 633.844 72.3131C629.065 72.6679 624.301 71.4567 620.266 68.8616C616.231 66.2664 613.143 62.4273 611.466 57.9205C603.14 39.8794 589.643 24.7419 572.701 14.4447C555.758 4.14739 536.141 -0.841565 516.359 0.115977C496.585 -0.794306 476.988 4.21433 460.055 14.5061C443.121 24.7979 429.616 39.9087 421.252 57.9205C419.624 62.3882 416.597 66.2057 412.626 68.8006C408.654 71.3955 403.952 72.628 399.224 72.3131C344.56 72.3131 299.221 111.63 299.221 135.032C299.221 146.733 308.196 151.999 320.667 154.222C362.16 161.477 384.771 177.625 417.173 228.409C453.421 285.16 504.238 364.378 507.151 368.824C511.347 375.143 513.562 375.611 516.476 375.611C519.389 375.611 521.837 375.143 525.8 368.824Z" fill="#1988C6"/>
<path d="M132.042 230.518C132.042 236.72 135.305 242.22 145.911 242.22C196.029 242.22 227.498 272.175 251.974 312.427C276.45 352.68 397.665 547.858 399.181 550.198C399.931 551.673 401.063 552.918 402.457 553.803C403.852 554.688 405.457 555.181 407.106 555.23C408.803 555.264 410.475 554.808 411.921 553.916C413.367 553.024 414.528 551.733 415.265 550.198C417.13 547.507 481.001 446.408 482.283 444.886C483.682 443.022 484.493 440.781 484.614 438.451C484.551 436.237 483.864 434.086 482.632 432.249C481.467 430.26 404.542 308.8 381.464 273.111C336.359 202.903 280.297 179.501 227.615 179.501C157.45 178.447 132.042 215.424 132.042 230.518Z" fill="#1988C6"/>
<path d="M788.713 311.818C813.072 271.917 844.541 241.611 894.543 241.611C905.265 241.611 908.529 236.111 908.529 229.909C908.529 214.814 883.237 177.955 812.839 177.955C760.041 177.955 704.212 200.656 659.223 271.566C635.912 306.67 456.654 591.129 418.774 651.859C418.003 653.791 416.733 655.482 415.094 656.758C413.455 658.033 411.506 658.846 409.45 659.113C404.788 659.113 402.34 656.422 399.543 651.859C322.502 531.335 219.469 367.517 219.469 367.517C177.16 300.468 128.208 284.086 86.3656 284.086C30.6534 284.086 0 313.223 0 332.413C0 339.316 2.91382 346.688 16.4339 346.688C49.6515 346.688 62.2392 364.123 99.303 423.683C126.693 467.797 333.224 796.487 333.224 796.487C341.081 809.911 352.31 821.029 365.789 828.73C379.268 836.43 394.524 840.443 410.033 840.367C425.557 840.599 440.862 836.666 454.365 828.972C467.868 821.278 479.08 810.104 486.841 796.604C504.674 768.17 764.237 351.603 788.713 311.818Z" fill="#1988C6"/>
</svg>
