<svg width="20" height="12" viewBox="0 0 20 12" fill="none" xmlns="http://www.w3.org/2000/svg">
<path d="M19.6749 5.56213C18.6197 3.96616 17.1813 2.66013 15.4911 1.76356C13.8011 0.8669 11.9131 0.4083 10 0.429614C8.0826 0.403945 6.18943 0.860529 4.49429 1.75741C2.79931 2.65419 1.35686 3.96256 0.299429 5.56227L0 5.98996L0.299429 6.41764C1.35691 8.0173 2.79943 9.32564 4.49429 10.2225C6.18926 11.1194 8.08257 11.576 10 11.5503C11.9132 11.5716 13.8011 11.113 15.4911 10.2164C17.1813 9.3197 18.6197 8.01367 19.6749 6.41779L19.9743 5.95584L19.6749 5.56213ZM10 9.83927C8.46974 9.85199 6.95714 9.51127 5.58029 8.8435C4.20329 8.17576 2.99914 7.19919 2.06143 5.98981C2.99903 4.78044 4.20317 3.80376 5.58029 3.13613C6.95717 2.46839 8.46971 2.12764 10 2.14036C11.5347 2.12306 13.0526 2.46156 14.4343 3.12941C15.8161 3.79739 17.0243 4.77641 17.964 5.9897C17.0243 7.2031 15.816 8.1821 14.4343 8.84998C13.0525 9.51796 11.5349 9.85647 10 9.83916V9.83927Z" fill="#868686"/>
<path d="M9.99996 3.1327C9.21928 3.11194 8.46191 3.40055 7.89305 3.9357C7.32419 4.47095 6.99005 5.20924 6.96313 5.98984C6.99003 6.77041 7.32419 7.5087 7.89305 8.04387C8.46191 8.57913 9.21928 8.86775 9.99996 8.84698C10.7813 8.86997 11.5399 8.58214 12.1092 8.04641C12.6786 7.51081 13.0121 6.77118 13.0368 5.98984C13.0121 5.20847 12.6786 4.46887 12.1092 3.93315C11.5399 3.39755 10.7813 3.10961 9.99996 3.1327V3.1327ZM9.99996 7.13613C9.67273 7.15733 9.35019 7.04907 9.10219 6.83455C8.85409 6.62016 8.70031 6.3167 8.67408 5.98981C8.70031 5.66293 8.8541 5.35947 9.10219 5.14507C9.35018 4.93056 9.67273 4.8223 9.99996 4.8435C10.3278 4.81995 10.6514 4.92743 10.9001 5.14238C11.1486 5.35734 11.3018 5.66204 11.3258 5.98981C11.3017 6.3175 11.1486 6.6223 10.9001 6.83724C10.6514 7.05219 10.3278 7.15967 9.99996 7.13613V7.13613Z" fill="#868686"/>
</svg>
