<svg width="371" height="54" viewBox="0 0 371 54" fill="none" xmlns="http://www.w3.org/2000/svg">
<path d="M302.083 9H295.9L280 45H287.264L290.857 36.5437H306.991L310.532 45H318L302.083 9ZM304.387 30.3617H293.422L298.898 17.6556L304.387 30.3617Z" fill="#007DC3"/>
<path d="M219.244 9H206V45H219.244C230.806 45 238 37.0335 238 26.9411C238 18.119 231.83 9 219.244 9ZM219.244 38.6093H212.821V15.3645H219.244C226.344 15.3645 230.909 20.2666 230.909 27.0458C230.909 33.6286 226.421 38.6093 219.244 38.6093Z" fill="#007DC3"/>
<path d="M144.031 23.2202L135.26 9H127L140.456 30.1426V45H147.5V29.9855L161 9H152.947L144.031 23.2202Z" fill="#007DC3"/>
<path d="M114.239 45L125 9.09947H117.607L110.844 33.5262L103.052 9H96.2491L88.3201 33.5089L81.5833 9.09947H74L84.9029 45H91.161L99.4136 19.5137L107.812 45H114.239Z" fill="#007DC3"/>
<path d="M189.271 32.6697L171.196 9H165V26.5766V45H171.733V20.6057L190.346 45H196V27.0655V9H189.271V32.6697Z" fill="#007DC3"/>
<path d="M275 45V26.5766V9H268.081V23.6566H251.958V9H245V26.0878V45H251.958V30.1295H268.081V45H275Z" fill="#007DC3"/>
<path d="M340.013 25.3545L329.289 9H322V25.5989V45H328.956V20.6537L339.605 36.3317H340.213L350.951 20.5533V45H358V25.1101V9H350.702L340.013 25.3545Z" fill="#007DC3"/>
<path d="M363 13.0207V13C362.997 11.9419 363.416 10.926 364.164 10.1759C364.912 9.42572 365.929 9.00276 366.99 9.00001C368.05 8.99727 369.069 9.41498 369.821 10.1612C370.573 10.9075 370.997 11.9212 371 12.9793V13C371.003 14.0581 370.584 15.074 369.836 15.8241C369.088 16.5743 368.071 16.9972 367.01 17C365.95 17.0027 364.931 16.585 364.179 15.8388C363.427 15.0925 363.003 14.0788 363 13.0207ZM370.54 13V12.9793C370.554 12.5061 370.474 12.0347 370.302 11.5932C370.13 11.1518 369.871 10.7493 369.54 10.4098C369.209 10.0703 368.813 9.80072 368.376 9.61708C367.938 9.43343 367.468 9.33951 366.993 9.3409C366.519 9.34229 366.049 9.43896 365.613 9.62516C365.176 9.81136 364.782 10.0833 364.453 10.4247C364.124 10.7661 363.867 11.1701 363.698 11.6125C363.529 12.055 363.451 12.5268 363.469 13V13.0207C363.454 13.4939 363.535 13.9653 363.706 14.4068C363.878 14.8482 364.137 15.2507 364.468 15.5902C364.799 15.9297 365.195 16.1993 365.632 16.3829C366.07 16.5666 366.54 16.6605 367.015 16.6591C367.49 16.6577 367.959 16.561 368.396 16.3748C368.832 16.1886 369.227 15.9167 369.555 15.5753C369.884 15.2339 370.141 14.8299 370.31 14.3875C370.479 13.945 370.557 13.4732 370.54 13ZM365.356 10.7622H367.247C367.486 10.7483 367.725 10.7821 367.951 10.8617C368.177 10.9412 368.384 11.0649 368.561 11.2254C368.679 11.3488 368.771 11.4943 368.831 11.6534C368.892 11.8125 368.92 11.982 368.914 12.152V12.1934C368.927 12.482 368.844 12.7668 368.678 13.0038C368.513 13.2408 368.273 13.4168 367.997 13.5047L369.038 15.0269H367.943L367.035 13.6577H366.297V15.0269H365.36L365.356 10.7622ZM367.23 12.8304C367.707 12.8304 367.96 12.5781 367.96 12.2265V12.1934C367.96 11.7797 367.67 11.5729 367.205 11.5729H366.289V12.8139L367.23 12.8304Z" fill="#007DC3"/>
<path d="M58 0H0V54H58V0Z" fill="#007DC3"/>
<path d="M44.8083 22C43.262 22 41.453 22.6186 39.8981 25.1635L30.168 40.8571C30.0785 40.9652 30.0203 41.0968 30 41.2371C30.0167 41.3745 30.0755 41.5029 30.168 41.6038C30.4777 42.0366 30.8824 42.3885 31.3493 42.6311C31.8163 42.8736 32.3323 43 32.8557 43C33.427 43.0023 33.9888 42.8505 34.4848 42.5596C34.9807 42.2688 35.3934 41.8493 35.6813 41.3431C35.6813 41.3431 43.3266 28.9322 44.3302 27.2666C45.6999 25.0177 46.1608 24.3593 47.397 24.3593C47.8837 24.3593 48 24.081 48 23.8203C47.9785 23.1001 46.8629 22 44.8083 22Z" fill="white"/>
<path d="M29.3456 24.747C29.4443 24.59 31.3289 21.6374 32.6641 19.5134C33.8532 17.6162 34.6947 17.0143 36.2273 16.7483C36.678 16.6654 37 16.4648 37 16.033C37 15.1607 35.3429 13.6953 33.3252 13.6953C33.1492 13.7085 32.9737 13.6634 32.8251 13.5667C32.6764 13.4699 32.5627 13.3268 32.5009 13.1588C32.1943 12.4864 31.6971 11.9222 31.0731 11.5384C30.449 11.1546 29.7265 10.9686 28.9979 11.0043C28.2695 10.9704 27.5477 11.1571 26.924 11.5407C26.3003 11.9243 25.8028 12.4875 25.4948 13.1588C25.4348 13.3254 25.3233 13.4677 25.177 13.5644C25.0308 13.6611 24.8575 13.707 24.6834 13.6953C22.67 13.6953 21 15.1607 21 16.033C21 16.4691 21.3306 16.6654 21.7899 16.7483C23.3182 17.0187 24.1511 17.6205 25.3445 19.5134C26.6796 21.6287 28.5514 24.5813 28.6587 24.747C28.8133 24.9826 28.8948 25 29.0021 25C29.1095 25 29.1996 24.9826 29.3456 24.747Z" fill="white"/>
<path d="M15 19.9017C15 20.1327 15.1203 20.3376 15.5114 20.3376C17.3593 20.3376 18.5197 21.4537 19.4221 22.9535C20.3246 24.4532 24.794 31.7253 24.8499 31.8125C24.8776 31.8674 24.9193 31.9138 24.9707 31.9468C25.0222 31.9797 25.0814 31.9981 25.1421 31.9999C25.2047 32.0012 25.2663 31.9842 25.3197 31.951C25.373 31.9178 25.4158 31.8697 25.443 31.8125C25.5117 31.7122 27.8668 27.9454 27.914 27.8887C27.9656 27.8193 27.9956 27.7358 28 27.6489C27.9977 27.5664 27.9724 27.4863 27.9269 27.4178C27.884 27.3437 25.0476 22.8183 24.1967 21.4886C22.5336 18.8728 20.4664 18.0008 18.524 18.0008C15.9369 17.9616 15 19.3393 15 19.9017Z" fill="white"/>
<path d="M39.5161 23.052C40.4277 21.5461 41.6054 20.4024 43.4766 20.4024C43.8779 20.4024 44 20.1948 44 19.9608C44 19.3911 43.0535 18 40.419 18C38.4431 18 36.3538 18.8567 34.6702 21.5329C33.7978 22.8577 27.0894 33.5933 25.6718 35.8853C25.643 35.9582 25.5954 36.022 25.5341 36.0702C25.4728 36.1183 25.3999 36.149 25.3229 36.1591C25.1484 36.1591 25.0568 36.0575 24.9521 35.8853C22.069 31.3367 18.2132 25.1541 18.2132 25.1541C16.6299 22.6237 14.7979 22.0054 13.2321 22.0054C11.1471 22.0054 10 23.105 10 23.8293C10 24.0898 10.109 24.368 10.615 24.368C11.8581 24.368 12.3292 25.026 13.7162 27.2738C14.7412 28.9387 22.4703 41.3436 22.4703 41.3436C22.7643 41.8502 23.1845 42.2698 23.689 42.5605C24.1934 42.8511 24.7643 43.0025 25.3447 42.9996C25.9257 43.0084 26.4984 42.8599 27.0038 42.5696C27.5091 42.2792 27.9287 41.8575 28.2191 41.348C28.8865 40.2749 38.6001 24.5535 39.5161 23.052Z" fill="white"/>
</svg>
