<svg width="248" height="36" viewBox="0 0 248 36" fill="none" xmlns="http://www.w3.org/2000/svg">
<path d="M201.942 5.7627H197.787L187.105 30.0846H191.986L194.4 24.3715H205.239L207.618 30.0846H212.635L201.942 5.7627ZM203.49 20.1949H196.123L199.802 11.6105L203.49 20.1949Z" fill="white"/>
<path d="M146.478 5.94141H137.461V30.079H146.478C154.349 30.079 159.247 24.7375 159.247 17.9707C159.247 12.0556 155.046 5.94141 146.478 5.94141ZM146.478 25.7941H142.105V10.2087H146.478C151.312 10.2087 154.419 13.4956 154.419 18.0409C154.419 22.4546 151.364 25.7941 146.478 25.7941Z" fill="white"/>
<path d="M96.2452 15.4799L90.4438 5.94434H84.9805L93.8809 20.1219V30.0848H98.5396V20.0165L107.469 5.94434H102.143L96.2452 15.4799Z" fill="white"/>
<path d="M76.0892 30.2369L83.1676 5.94134H78.3049L73.8561 22.4721L68.731 5.87402H64.256L59.0405 22.4604L54.6092 5.94134H49.6211L56.7928 30.2369H60.9092L66.3375 12.9891L71.862 30.2369H76.0892Z" fill="white"/>
<path d="M126.641 21.8136L114.385 5.94141H110.184V17.7277V30.0819H114.749V13.7238L127.369 30.0819H131.203V18.0556V5.94141H126.641V21.8136Z" fill="white"/>
<path d="M183.813 30.0819V17.7277V5.94141H179.199V15.7697H168.444V5.94141H163.803V17.3999V30.0819H168.444V20.1102H179.199V30.0819H183.813Z" fill="white"/>
<path d="M227.248 16.9082L220.205 5.94141H215.418V17.0721V30.0819H219.986V13.756L226.98 24.2692H227.38L234.432 13.6887V30.0819H239.061V16.7443V5.94141H234.268L227.248 16.9082Z" fill="white"/>
<path d="M242.375 8.78043V8.7658C242.373 8.01711 242.667 7.29832 243.194 6.76755C243.72 6.23677 244.434 5.9375 245.18 5.93556C245.926 5.93362 246.642 6.22917 247.171 6.7572C247.699 7.28523 247.997 8.00248 247.999 8.75117V8.7658C248.001 9.51449 247.707 10.2333 247.181 10.7641C246.655 11.2948 245.94 11.5941 245.194 11.596C244.449 11.598 243.733 11.3024 243.204 10.7744C242.675 10.2464 242.377 9.52912 242.375 8.78043ZM247.676 8.7658V8.75117C247.686 8.4163 247.629 8.08277 247.509 7.77042C247.388 7.45807 247.206 7.17331 246.973 6.93309C246.741 6.69287 246.462 6.50211 246.154 6.37217C245.847 6.24223 245.516 6.17577 245.183 6.17675C244.849 6.17774 244.519 6.24614 244.212 6.37789C243.905 6.50963 243.628 6.70203 243.396 6.94362C243.165 7.1852 242.985 7.47103 242.866 7.78409C242.747 8.09714 242.692 8.43101 242.704 8.7658V8.78043C242.694 9.1153 242.751 9.44883 242.872 9.76118C242.992 10.0735 243.174 10.3583 243.407 10.5985C243.64 10.8387 243.918 11.0295 244.226 11.1594C244.533 11.2894 244.864 11.3558 245.198 11.3548C245.531 11.3539 245.862 11.2855 246.168 11.1537C246.475 11.022 246.753 10.8296 246.984 10.588C247.215 10.3464 247.395 10.0606 247.514 9.74751C247.633 9.43446 247.688 9.10059 247.676 8.7658ZM244.031 7.18239H245.361C245.529 7.17257 245.697 7.19651 245.856 7.2528C246.014 7.30908 246.16 7.39659 246.285 7.51019C246.368 7.5975 246.432 7.70043 246.475 7.81299C246.517 7.92555 246.537 8.04548 246.533 8.1658V8.19507C246.542 8.39929 246.484 8.6008 246.367 8.76849C246.251 8.93618 246.082 9.06072 245.888 9.12287L246.62 10.1999H245.851L245.212 9.23117H244.693V10.1999H244.034L244.031 7.18239ZM245.349 8.6458C245.684 8.6458 245.862 8.46726 245.862 8.21848V8.19507C245.862 7.90239 245.658 7.75604 245.332 7.75604H244.687V8.63409L245.349 8.6458Z" fill="white"/>
<path d="M38.8874 0H0V36H38.8874V0Z" fill="white"/>
<path d="M30.2143 14.5957C29.1677 14.5957 27.9432 15.0055 26.8908 16.6913L20.3051 27.0874C20.2446 27.159 20.2052 27.2462 20.1914 27.3391C20.2027 27.4301 20.2425 27.5152 20.3051 27.582C20.5147 27.8687 20.7886 28.1019 21.1047 28.2626C21.4207 28.4232 21.77 28.5069 22.1243 28.5069C22.5109 28.5085 22.8912 28.4079 23.2269 28.2152C23.5625 28.0226 23.8418 27.7447 24.0367 27.4094C24.0367 27.4094 29.2114 19.1879 29.8907 18.0845C30.8177 16.5947 31.1297 16.1586 31.9664 16.1586C32.2958 16.1586 32.3745 15.9742 32.3745 15.8016C32.3599 15.3245 31.6049 14.5957 30.2143 14.5957Z" fill="#007DC3"/>
<path d="M19.5658 16.7156C19.6329 16.6102 20.9127 14.6287 21.8193 13.2034C22.6269 11.9302 23.1983 11.5263 24.2391 11.3478C24.5452 11.2922 24.7638 11.1575 24.7638 10.8678C24.7638 10.2824 23.6385 9.29899 22.2683 9.29899C22.1488 9.30786 22.0296 9.27757 21.9287 9.21266C21.8277 9.14775 21.7505 9.05172 21.7086 8.93899C21.5003 8.48773 21.1627 8.1091 20.7389 7.85154C20.3152 7.59397 19.8245 7.46918 19.3297 7.49314C18.8351 7.47037 18.3449 7.59565 17.9213 7.85307C17.4978 8.1105 17.16 8.48846 16.9508 8.93899C16.9101 9.05074 16.8343 9.14623 16.735 9.21113C16.6357 9.27604 16.518 9.30686 16.3998 9.29899C15.0325 9.29899 13.8984 10.2824 13.8984 10.8678C13.8984 11.1605 14.1229 11.2922 14.4349 11.3478C15.4727 11.5292 16.0383 11.9331 16.8487 13.2034C17.7554 14.6229 19.0265 16.6044 19.0994 16.7156C19.2043 16.8736 19.2597 16.8853 19.3326 16.8853C19.4055 16.8853 19.4667 16.8736 19.5658 16.7156Z" fill="#007DC3"/>
<path d="M9.7168 13.2561C9.7168 13.4113 9.79843 13.5488 10.0637 13.5488C11.3173 13.5488 12.1044 14.2981 12.7167 15.3049C13.3289 16.3118 16.3608 21.1937 16.3987 21.2522C16.4175 21.2891 16.4458 21.3203 16.4807 21.3424C16.5155 21.3645 16.5557 21.3769 16.5969 21.3781C16.6394 21.379 16.6812 21.3675 16.7174 21.3452C16.7536 21.3229 16.7826 21.2906 16.801 21.2522C16.8477 21.1849 18.4453 18.6561 18.4773 18.6181C18.5123 18.5715 18.5326 18.5154 18.5356 18.4571C18.5341 18.4017 18.5169 18.348 18.4861 18.302C18.4569 18.2522 16.5328 15.2142 15.9556 14.3215C14.8273 12.5654 13.4251 11.98 12.1074 11.98C10.3523 11.9537 9.7168 12.8786 9.7168 13.2561Z" fill="#007DC3"/>
<path d="M26.142 15.2897C26.7513 14.2917 27.5384 13.5336 28.7891 13.5336C29.0573 13.5336 29.1389 13.396 29.1389 13.2409C29.1389 12.8634 28.5063 11.9414 26.7455 11.9414C25.4248 11.9414 24.0284 12.5092 22.9031 14.2829C22.32 15.1609 17.8363 22.276 16.8888 23.7951C16.8695 23.8434 16.8377 23.8857 16.7967 23.9176C16.7557 23.9495 16.707 23.9698 16.6556 23.9765C16.539 23.9765 16.4777 23.9092 16.4078 23.7951C14.4807 20.7804 11.9036 16.6829 11.9036 16.6829C10.8453 15.0058 9.62091 14.596 8.57431 14.596C7.18079 14.596 6.41406 15.3248 6.41406 15.8048C6.41406 15.9775 6.48695 16.1619 6.82512 16.1619C7.65599 16.1619 7.97084 16.598 8.89791 18.0877C9.58301 19.1912 14.7489 27.4126 14.7489 27.4126C14.9455 27.7484 15.2263 28.0265 15.5635 28.2191C15.9006 28.4117 16.2822 28.5121 16.6701 28.5102C17.0584 28.516 17.4413 28.4176 17.779 28.2252C18.1168 28.0327 18.3972 27.7532 18.5913 27.4156C19.0374 26.7043 25.5298 16.2848 26.142 15.2897Z" fill="#007DC3"/>
</svg>
