<svg width="74" height="80" viewBox="0 0 74 80" fill="none" xmlns="http://www.w3.org/2000/svg">
<path d="M45.0704 7.93217C45.0704 10.0359 44.2347 12.0535 42.7469 13.5414C41.2597 15.0293 39.242 15.865 37.1376 15.865C35.0338 15.865 33.0162 15.0293 31.529 13.5414C30.0411 12.0536 29.2054 10.0359 29.2054 7.93217C29.2054 5.82839 30.0411 3.81083 31.529 2.32289C33.0162 0.835695 35.0338 0 37.1376 0C39.2407 0.00201703 41.257 0.839068 42.7441 2.32564C44.2313 3.81283 45.0677 5.82907 45.0704 7.93217ZM32.0971 7.93217C32.0971 9.26943 32.6283 10.5516 33.5736 11.4969C34.5189 12.4422 35.8009 12.9733 37.1376 12.9733C38.4748 12.9733 39.757 12.4422 40.7023 11.4969C41.6476 10.5516 42.1787 9.26951 42.1787 7.93217C42.1787 6.59558 41.6476 5.31341 40.7023 4.36746C39.757 3.42216 38.4749 2.89103 37.1376 2.89103C35.8017 2.89372 34.5209 3.42553 33.5763 4.37083C32.6317 5.31546 32.0999 6.5963 32.0972 7.9321L32.0971 7.93217Z" fill="#007DC3"/>
<path d="M68.9161 30.0042H68.7621L63.5577 69.1762L63.557 69.1755C64.8264 70.3514 65.5465 72.0048 65.543 73.7346C65.5404 75.3952 64.8795 76.9872 63.7048 78.1619C62.5303 79.3365 60.9382 79.9974 59.2775 79.9994H6.26556C4.02735 79.9994 1.95921 78.8054 0.839935 76.8671C-0.278824 74.9287 -0.278824 72.5406 0.839935 70.6024C1.95936 68.664 4.02753 67.47 6.26556 67.47H9.53302L8.30871 65.8699C7.8643 65.2809 7.93085 64.4526 8.46334 63.9423L19.2683 53.8117L19.5769 43.0262L19.5762 43.0269C19.31 41.8785 19.2804 40.6878 19.4895 39.5281C20.1067 36.1254 20.9834 32.0773 21.9086 28.3183L15.8556 38.0147H15.8563C15.6452 38.3556 15.303 38.5936 14.9096 38.6715C14.517 38.7502 14.1096 38.6621 13.7835 38.4288L10.6706 36.2316C10.085 35.8228 9.89136 35.0449 10.2174 34.4096L16.5978 21.687C16.7423 21.404 16.9763 21.1767 17.2634 21.0409L27.056 16.3373C28.638 15.2865 30.5703 14.8985 32.4353 15.2576C34.3004 15.6159 35.951 16.693 37.03 18.2555C38.1097 19.8187 38.5326 21.7429 38.2079 23.6147L39.008 30.5639L48.8098 36.9732C49.148 37.1843 49.384 37.5252 49.4627 37.9151C49.5407 38.3057 49.4546 38.7112 49.2247 39.0359L46.9596 42.0815V42.0822C46.6887 42.4493 46.2597 42.6678 45.8032 42.6698C45.5672 42.6698 45.3353 42.61 45.1282 42.4963L35.1334 37.234L34.3044 40.829L39.7503 49.5519C39.8115 49.6413 39.8599 49.7382 39.8949 49.841L45.9479 67.4709H54.0441L58.9885 30.0063H49.7837C48.1896 30.0063 46.7165 29.1551 45.9191 27.7748C45.1217 26.3938 45.1217 24.6929 45.9191 23.3118C46.7165 21.9315 48.1895 21.0803 49.7837 21.0803H68.9161C70.5109 21.0803 71.984 21.9315 72.7814 23.3118C73.5781 24.6928 73.5781 26.3937 72.7814 27.7748C71.984 29.1551 70.511 30.0063 68.9161 30.0063L68.9161 30.0042ZM21.6873 55.5084L11.4128 65.147L12.2902 66.294L25.3979 56.732L27.2005 51.383L22.7766 47.9904C22.6226 47.8748 22.478 47.7302 22.3335 47.6051L22.1405 54.4575C22.1291 54.8548 21.9631 55.2313 21.678 55.5083L21.6873 55.5084ZM15.5765 67.4698H38.227L32.1162 55.142L29.6293 53.2145L27.9908 58.0337H27.9915C27.898 58.3181 27.7192 58.5669 27.4805 58.7471L15.5765 67.4698ZM45.3681 39.3735L45.9752 38.554L36.8859 32.6166L36.8866 32.6173C36.6358 32.4566 36.4435 32.2199 36.3373 31.9423L35.7295 34.323L45.3681 39.3735ZM37.2039 50.9396L31.5174 41.8503L31.5181 41.851C31.3191 41.5208 31.2538 41.1282 31.3345 40.7517L35.3154 23.3541C35.6643 21.8441 35.187 20.2621 34.0608 19.1972C32.9347 18.1329 31.3285 17.745 29.8405 18.1779L29.7733 18.2263L18.9683 23.4597L13.3873 34.5922L14.2068 35.1798L19.9903 25.975V25.9757C20.2182 25.612 20.5961 25.3686 21.0217 25.3108L29.8891 24.106C30.6872 23.9997 31.4213 24.5605 31.5276 25.3592C31.6338 26.1572 31.0731 26.8907 30.2744 26.9976L25.0792 27.711C24.0478 31.7592 23.0455 36.3087 22.361 40.0678V40.0671C22.1673 41.1213 22.2702 42.2084 22.6581 43.2075C23.0461 44.2066 23.7043 45.0786 24.5588 45.7254L34.1973 53.0794C34.3708 53.2139 34.5127 53.3847 34.6115 53.5803L41.3777 67.3059L42.7466 67.0747L37.2039 50.9396ZM6.26427 70.3612C5.05945 70.3612 3.94534 71.0047 3.34293 72.0481C2.74052 73.0922 2.74052 74.3777 3.34293 75.4219C3.94534 76.4654 5.05939 77.1088 6.26427 77.1088H59.2762C60.4817 77.1088 61.5951 76.4654 62.1982 75.4219C62.8006 74.3778 62.8006 73.0923 62.1982 72.0481C61.5951 71.0047 60.4817 70.3612 59.2762 70.3612H6.26427ZM56.9337 67.4702H59.2753C59.8024 67.4729 60.3269 67.5408 60.8371 67.6726L65.8392 30.0048H61.8974L56.9337 67.4702ZM68.9139 23.9712H49.7814C48.9141 23.9712 48.2108 24.6744 48.2108 25.5424C48.2108 26.4104 48.9141 27.1136 49.7814 27.1136H68.9139C69.7818 27.1136 70.4851 26.4104 70.4851 25.5424C70.4851 24.6744 69.7818 23.9712 68.9139 23.9712Z" fill="#007DC3"/>
<path d="M32.423 74.7657H10.7449C9.94682 74.7657 9.29937 74.1183 9.29937 73.3202C9.29937 72.5215 9.94682 71.874 10.7449 71.874H32.423C33.2217 71.874 33.8691 72.5215 33.8691 73.3202C33.8691 74.1183 33.2217 74.7657 32.423 74.7657Z" fill="#007DC3"/>
</svg>
