<svg width="81" height="75" viewBox="0 0 81 75" fill="none" xmlns="http://www.w3.org/2000/svg">
<path d="M58.4427 47.8332C54.7758 51.5 48.9427 51.5 45.2758 47.8332C44.6089 47.1663 43.6089 47.1663 42.9427 47.8332C39.2758 51.5 33.4427 51.5 29.7758 47.8332C29.4427 47.5 29.1089 47.3332 28.6089 47.3332C28.1089 47.3332 27.7758 47.5 27.4421 47.8332C23.7752 51.5 17.7752 51.5 14.2752 47.8332C13.2758 47.3332 12.2758 47.3332 11.6095 47.8332C10.9427 48.3332 10.9427 49.5 11.6095 50.1663C16.1095 54.6663 23.4427 55.1663 28.4424 51.1663C32.9424 54.6663 39.4424 54.6663 44.1095 51.1663C49.1095 54.9994 56.2764 54.6663 60.9424 50.1663C61.6092 49.4994 61.6092 48.4994 60.9424 47.8332C60.2755 47.1663 59.1092 47.3332 58.4424 47.8332H58.4427Z" fill="#007DC3"/>
<path d="M48.1101 56.5001C44.4432 60.167 38.6101 60.167 34.9432 56.5001C34.6101 56.167 34.2764 56.0001 33.7764 56.0001C33.2764 56.0001 32.9432 56.167 32.6095 56.5001C28.9427 60.167 23.1095 60.167 19.4427 56.5001C18.7758 55.8333 17.7758 55.8333 17.1095 56.5001C16.4427 57.167 16.4427 58.167 17.1095 58.8333C21.6095 63.3333 28.9427 63.8333 33.9424 59.8333C38.9424 63.6664 46.1092 63.3333 50.7752 58.8333C51.4421 58.1664 51.4421 57.1664 50.7752 56.5001C49.7758 55.8333 48.7758 55.8333 48.1095 56.5001H48.1101Z" fill="#007DC3"/>
<path d="M59.7751 0C51.7751 0 44.2751 4.83314 40.9422 12.1669C38.4422 17.5 34.6091 21.8337 29.7754 25V20.5C29.7754 16.8331 26.7754 13.8331 23.1085 13.8331C19.4417 13.8331 16.4417 16.8331 16.4417 20.5V21.1669C16.4417 22.1669 17.1085 22.8337 18.1085 22.8337C19.1085 22.8337 19.7754 22.1669 19.7754 21.1669V20.5C19.7754 18.6669 21.2754 17.1669 23.1085 17.1669C24.9417 17.1669 26.4417 18.6669 26.4417 20.5V26.8331C21.4417 29.1663 19.7748 28.6663 14.4417 30.8331V20.5C14.4417 16.8331 11.4417 13.8331 7.7748 13.8331C4.10794 13.8331 1.10794 16.8331 1.10794 20.5V21.1669C1.10794 22.1669 1.7748 22.8337 2.7748 22.8337C3.7748 22.8337 4.44165 22.1669 4.44165 21.1669V20.5C4.44165 18.6669 5.94165 17.1669 7.7748 17.1669C9.60794 17.1669 11.1079 18.6669 11.1079 20.5L11.1091 32.3331C4.77591 35.8331 0.775912 41 0.109055 47.0003C-1.89095 63.8331 24.1091 74.6674 37.7762 74.6674C58.4433 74.6674 69.7762 53.1674 74.6091 40.3346C76.7759 34.5014 80.1091 23.1674 80.1091 19.8346C79.6091 8.834 70.6091 0.00028583 59.7748 0.00028583L59.7751 0ZM26.4422 30.5V36.3331H14.4422V34.3331C19.6091 32 21.4422 32.5 26.4422 30.5ZM71.4422 39.1663C66.9422 51.1663 56.4422 71.3334 37.7751 71.3334C26.4419 71.3334 1.60937 62.0003 3.44222 47.3334C3.94222 43.0003 6.77537 39.0003 11.2754 36.1666V42.1666C11.2754 43.1666 11.9422 43.8334 12.9422 43.8334C13.9422 43.8334 14.6091 43.1666 14.6091 42.1666V39.6666H26.6091V42.1666C26.6091 43.1666 27.2759 43.8334 28.2759 43.8334C29.2759 43.8334 29.9428 43.1666 29.9428 42.1666V28.8334C35.9428 25.5003 40.9428 20.1666 44.1097 13.6663C47.1097 7.49943 53.2765 3.49943 59.9425 3.49943C68.9425 3.49943 76.4425 10.8326 76.7754 19.9994C76.6085 22.3331 73.9417 32.3331 71.4417 39.1666L71.4422 39.1663Z" fill="#007DC3"/>
</svg>
