<svg width="80" height="81" viewBox="0 0 80 81" fill="none" xmlns="http://www.w3.org/2000/svg">
<path d="M73.8332 38.3331H69.3332V34.3331C69.3332 27.5 65.1663 21.5 59.1663 18.8331C61.8331 16.3331 63.4994 12.5 63.4994 9.5C63.4994 4.33314 58.4994 5.39069e-08 52.4994 5.39069e-08C46.5 -0.000558089 41.6669 4.33314 41.6669 9.66629C41.6669 12.6663 43.3337 16.4994 46 18.9994C40 21.4994 35.8332 27.4994 35.8332 34.4994V38.4994H27.8332C27.1663 34.9994 24.1663 32.3326 20.6663 31.9994V28.8326C20.6663 27.8326 19.9994 27.1657 18.9994 27.1657C17.9994 27.1657 17.3326 27.8326 17.3326 28.8326L17.3331 31.8331C13.8331 32.3331 10.8331 34.8331 10.1663 38.3331H6.16686C2.83371 38.3331 0 41 0 44.3331V75.3331C0 78.1663 2.16686 80.1663 4.66686 80.1663H7.33371C9.83371 80.1663 12.0006 78.1663 12.0006 75.4994L12 71.8331H68.1672V75.5C68.1672 78 70.334 80.1669 72.834 80.1669H75.334C77.834 80.1669 80.0009 78.1669 80.0009 75.5L80.0003 44.5C80.0003 41.1669 77.3335 38.3337 73.8335 38.3337L73.8332 38.3331ZM18.5003 35.1663H19.8334C22.0003 35.1663 23.8334 36.4994 24.5003 38.4994H13.8334C14.5003 36.4994 16.3334 35.1663 18.5003 35.1663ZM45.0003 9.66629C45.0003 6.33314 48.5003 3.49943 52.6672 3.49943C56.834 3.49943 60.334 6.16629 60.334 9.66629C60.334 13.1663 56.834 18.4994 52.6672 18.4994C48.5003 18.4994 45.0003 12.9994 45.0003 9.66629ZM39.1672 34.4991C39.1672 28.166 43.5003 22.666 49.6672 21.3323C51.6672 21.9991 53.5003 21.9991 55.5003 21.3323C61.6671 22.6654 66.0003 28.1654 66.0003 34.4991V38.4991H39.1674L39.1672 34.4991ZM6.16716 41.666H73.8343C75.3343 41.666 76.6674 42.8329 76.6674 44.3329V50.666H3.33316V44.3329C3.33316 42.9992 4.66686 41.666 6.16687 41.666H6.16716ZM75.3329 76.8331H72.8329C72.166 76.8331 71.4997 76.1663 71.4997 75.5V70.1663C71.4997 69.1663 70.8329 68.4994 69.8329 68.4994H10.3329C9.33287 68.4994 8.66601 69.1663 8.66601 70.1663V75.4994C8.66601 76.1663 7.99916 76.8326 7.33287 76.8326L4.66658 76.8331C3.99973 76.8331 3.33288 76.1663 3.33288 75.4994V54.1666H76.6657V75.6666C76.6663 76.1666 75.9994 76.8334 75.3326 76.8334L75.3329 76.8331Z" fill="#007DC3"/>
</svg>
