<svg width="80" height="60" viewBox="0 0 80 60" fill="none" xmlns="http://www.w3.org/2000/svg">
<path d="M37.8892 7.13201C31.7367 7.13201 25.8356 9.57662 21.4842 13.9273C17.1335 18.2779 14.6895 24.1791 14.6895 30.3323C14.6895 36.4856 17.1334 42.3867 21.4842 46.7373C25.8356 51.088 31.7367 53.5326 37.8892 53.5326C44.0425 53.5326 49.9436 51.088 54.2943 46.7373C58.6456 42.3867 61.0895 36.4856 61.0895 30.3323C61.0821 24.1818 58.6355 18.2847 54.2862 13.9359C49.9367 9.58643 44.0404 7.13993 37.8891 7.13184L37.8892 7.13201ZM37.8892 50.642C32.5031 50.642 27.3375 48.5026 23.5293 44.6938C19.7205 40.8849 17.5805 35.7193 17.5805 30.3332C17.5805 24.947 19.7207 19.7814 23.5293 15.9726C27.3375 12.1637 32.5031 10.0243 37.8892 10.0243C43.2761 10.0243 48.4417 12.1637 52.2498 15.9726C56.0587 19.7814 58.1981 24.947 58.1981 30.3332C58.1934 35.7179 56.052 40.8801 52.2445 44.6876C48.4371 48.4957 43.2742 50.6364 37.8894 50.6419L37.8892 50.642Z" fill="#007DC3"/>
<path d="M37.8897 13.8311C33.5141 13.8337 29.3187 15.5738 26.2259 18.6698C23.1331 21.7652 21.3964 25.9627 21.3984 30.339C21.3998 34.7146 23.1398 38.9107 26.2346 42.0041C29.33 45.0976 33.5268 46.8341 37.9031 46.8336C42.2787 46.8329 46.4748 45.0943 49.5689 41.9994C52.663 38.9047 54.4009 34.7079 54.4009 30.3323C54.3956 25.956 52.6543 21.7599 49.5587 18.6666C46.4633 15.5724 42.2665 13.8338 37.8895 13.8311H37.8897ZM37.8897 43.9433V43.9426C34.2812 43.9406 30.8208 42.5045 28.2705 39.951C25.7197 37.3975 24.2881 33.9356 24.2895 30.3265C24.2915 26.718 25.7263 23.2575 28.2793 20.7059C30.8321 18.1551 34.294 16.7222 37.9031 16.7235C41.5116 16.7242 44.9728 18.1583 47.5243 20.7105C50.0757 23.2627 51.5092 26.724 51.5092 30.333C51.5065 33.9436 50.071 37.4054 47.5169 39.9569C44.9633 42.5091 41.5001 43.9425 37.8895 43.9425L37.8897 43.9433Z" fill="#007DC3"/>
<path d="M9.08869 55.547V39.9709H11.0842C11.8191 39.9709 12.437 39.4189 12.5204 38.6887C12.6454 37.5801 15.4989 11.5266 7.77831 2.89137C6.19898 1.03833 3.88015 -0.0198557 1.44553 0.000282291C0.658219 -0.000390007 0.0154563 0.629585 0 1.41691V55.5484C0.0645447 56.6901 0.578217 57.7591 1.42873 58.5235C2.27924 59.2873 3.39794 59.6833 4.53961 59.6255C5.68259 59.6833 6.80143 59.2873 7.65394 58.5235C8.50579 57.7604 9.02215 56.6908 9.08871 55.5484L9.08869 55.547ZM2.89102 55.547V3.04545C3.95466 3.35675 4.90327 3.97328 5.61877 4.81914C11.5946 11.4989 10.2357 31.8074 9.77321 37.0795L7.64323 37.0788C6.8445 37.0788 6.19771 37.7263 6.19771 38.525V55.5467C6.19771 56.1928 5.43594 56.7321 4.53972 56.7321C3.64349 56.7321 2.89114 56.1922 2.89114 55.5467L2.89102 55.547Z" fill="#007DC3"/>
<path d="M78.5536 2.37968C77.7548 2.37968 77.1081 3.02647 77.1081 3.82521V11.2083H74.5344V3.80576C74.5344 3.00769 73.8869 2.36023 73.0882 2.36023C72.2901 2.36023 71.6426 3.00769 71.6426 3.80576V11.1888L69.0595 11.1895V3.80591C69.0595 3.00785 68.412 2.36039 67.6139 2.36039C66.8152 2.36039 66.1677 3.00785 66.1677 3.80591V11.189L63.5947 11.1896V3.80607C63.5947 3.008 62.9473 2.36054 62.1485 2.36054C61.3498 2.36054 60.703 3.008 60.703 3.80607V19.3056C60.705 20.7915 61.212 22.233 62.1398 23.3941C63.0676 24.5546 64.3619 25.3661 65.8115 25.6955V53.109C65.8249 54.2587 66.3426 55.3444 67.2281 56.0773C68.1041 56.8082 69.2109 57.2042 70.3512 57.1954C71.4942 57.2512 72.6123 56.8525 73.4628 56.0867C74.3126 55.3216 74.8263 54.2513 74.8908 53.1089V25.6955C76.3404 25.366 77.6346 24.5545 78.5625 23.3941C79.491 22.2329 79.9972 20.7914 79.9993 19.3055V3.80602C79.9892 3.01533 79.3451 2.3793 78.5537 2.37997L78.5536 2.37968ZM77.1081 19.3052C77.1081 20.2761 76.7221 21.208 76.035 21.8951C75.3479 22.5815 74.4167 22.9675 73.4451 22.9675C72.6464 22.9675 71.9996 23.6149 71.9996 24.4137V53.1077C71.9996 53.7538 71.2479 54.3031 70.3517 54.3031H70.351C69.8952 54.3112 69.4514 54.1572 69.0978 53.8694C68.8544 53.6913 68.7078 53.4096 68.7031 53.1077V24.4137C68.7031 23.6149 68.0556 22.9675 67.2569 22.9675C66.2854 22.9675 65.3541 22.5815 64.667 21.8951C63.9799 21.2079 63.5946 20.2761 63.5946 19.3052V14.081H77.0884L77.1081 19.3052Z" fill="#007DC3"/>
</svg>
