<svg width="80" height="75" viewBox="0 0 80 75" fill="none" xmlns="http://www.w3.org/2000/svg">
<path d="M21.4281 48.5489C23.3223 48.5489 25.1392 47.7963 26.4792 46.4571C27.8185 45.1172 28.571 43.3002 28.571 41.406C28.571 39.5117 27.8185 37.6949 26.4792 36.3548C25.1393 35.0155 23.3223 34.263 21.4281 34.263C19.5339 34.263 17.7171 35.0156 16.377 36.3548C15.0377 37.6947 14.2852 39.5117 14.2852 41.406C14.2871 43.2995 15.0409 45.1152 16.3796 46.4545C17.7189 47.7931 19.5345 48.5469 21.4281 48.5489ZM21.4281 37.1202C22.5646 37.1202 23.6552 37.5717 24.4587 38.3753C25.2621 39.1789 25.7138 40.2695 25.7138 41.4059C25.7138 42.5422 25.2622 43.633 24.4587 44.4364C23.6551 45.2399 22.5644 45.6915 21.4281 45.6915C20.2918 45.6915 19.201 45.24 18.3975 44.4364C17.5941 43.6328 17.1424 42.5422 17.1424 41.4059C17.1437 40.2694 17.5959 39.1801 18.3988 38.3765C19.2024 37.5735 20.2917 37.1213 21.4282 37.1201L21.4281 37.1202ZM78.5714 65.6919H72.3087C69.9176 65.6938 67.579 64.9929 65.5829 63.6765C63.5873 62.3602 62.0217 60.4871 61.081 58.2887C59.4815 54.5483 56.8176 51.36 53.4215 49.1203C50.0247 46.8804 46.0451 45.6884 41.9768 45.6917H37.1427V25.6915H41.4284C41.989 25.6909 42.4973 25.3631 42.7288 24.8529C42.9603 24.3427 42.8723 23.7438 42.5037 23.3223L22.5035 0.464935C22.2248 0.168377 21.8358 0 21.4283 0C21.0207 0 20.6317 0.168361 20.353 0.464935L0.352848 23.3223C-0.0157755 23.7438 -0.103792 24.3427 0.12772 24.8529C0.359232 25.3631 0.867513 25.6909 1.42811 25.6915H5.71386V72.8348C5.71386 73.2136 5.86437 73.5771 6.13223 73.845C6.40008 74.1128 6.76361 74.2634 7.14244 74.2634H15.7139C16.0928 74.2634 16.4563 74.1128 16.7241 73.845C16.992 73.5771 17.1425 73.2136 17.1425 72.8348V65.6919H25.714V72.8348C25.714 73.2136 25.8645 73.5771 26.1324 73.845C26.4002 74.1128 26.7638 74.2634 27.1426 74.2634H35.7141C36.0929 74.2634 36.4565 74.1128 36.7243 73.845C36.9922 73.5771 37.1427 73.2136 37.1427 72.8348V54.2632H41.9768C44.3679 54.2613 46.7065 54.9622 48.7026 56.2786C50.6982 57.5949 52.2638 59.468 53.2045 61.6664C54.804 65.4068 57.4679 68.5951 60.864 70.8348C64.2608 73.0746 68.2404 74.2666 72.3087 74.2634H78.5714C78.9502 74.2634 79.3138 74.1128 79.5816 73.845C79.8495 73.5771 80 73.2136 80 72.8348V67.1204C80 66.7416 79.8495 66.3781 79.5816 66.1102C79.3138 65.8424 78.9502 65.6919 78.5714 65.6919ZM21.4281 3.57544L38.2789 22.8344H4.57572L21.4281 3.57544ZM34.2853 25.6915V57.1204H8.57086V25.6915H34.2853ZM28.571 71.4062V64.2633C28.571 63.8845 28.4205 63.5209 28.1526 63.2531C27.8848 62.9852 27.5213 62.8347 27.1424 62.8347H15.7138C14.9249 62.8347 14.2852 63.4744 14.2852 64.2633V71.4062H8.57086V59.9775H34.2853V71.4062H28.571ZM77.1428 71.4062H72.3087C68.7997 71.4087 65.3666 70.3807 62.4374 68.4489C59.5076 66.5172 57.2096 63.7671 55.8302 60.5406C54.6694 57.8283 52.7377 55.5164 50.2753 53.8926C47.8123 52.2689 44.9264 51.4041 41.9768 51.406H37.1427V48.5489H41.9768C45.4858 48.5463 48.9189 49.5744 51.8481 51.5061C54.7779 53.4379 57.0759 56.188 58.4553 59.4144C59.6161 62.1268 61.5478 64.4386 64.0102 66.0625C66.4732 67.6862 69.3591 68.551 72.3087 68.549H77.1428V71.4062Z" fill="#007DC3"/>
</svg>
