<svg width="80" height="80" viewBox="0 0 80 80" fill="none" xmlns="http://www.w3.org/2000/svg">
<path d="M76.2662 46.9141C76.9259 46.9141 77.4998 46.369 77.4998 45.6805V8.23519C78.9056 7.71897 79.9098 6.39899 79.9098 4.82087V3.6155C79.9098 1.63584 78.274 0 76.2943 0H3.6155C1.60698 0 0 1.66387 0 3.6155V4.84904C0 6.42716 1.03308 7.74721 2.43891 8.26335V45.6792C2.43891 46.3677 2.98395 46.9127 3.64429 46.9127H24.159V56.9842C23.4705 56.5538 22.6386 56.2957 21.749 56.2957H15.4936C12.8254 56.2957 10.6446 58.4476 10.6446 61.1446V63.3824L4.82021 63.383C2.15208 63.383 9.88227e-05 65.535 9.88227e-05 68.2031V78.7338C9.88227e-05 79.3935 0.545137 79.9104 1.20547 79.9104H14.6912C15.3797 79.9104 15.9248 79.3653 15.9248 78.7338V68.2031C15.9248 66.2523 14.7771 64.6165 13.1132 63.8134V61.1453C13.1132 59.8253 14.2033 58.7352 15.5232 58.7352H21.75C23.07 58.7352 24.16 59.8253 24.16 61.1453V63.8134C22.5243 64.5884 21.3484 66.2523 21.3484 68.2031V78.7338C21.3484 79.3935 21.8935 79.9104 22.582 79.9104H36.0677C36.7274 79.9104 37.2731 79.3653 37.2731 78.7338V68.2031C37.2731 66.2523 36.1254 64.6165 34.4615 63.8134V61.1453C34.4615 59.8253 35.5516 58.7352 36.9004 58.7352H43.0983C44.4471 58.7352 45.5372 59.8253 45.5372 61.1453V63.8134C43.8733 64.5884 42.7256 66.2523 42.7256 68.2031V78.7338C42.7256 79.3935 43.2707 79.9104 43.931 79.9104H57.4168C58.0764 79.9104 58.6221 79.3653 58.6221 78.7338V68.2031C58.6221 66.2523 57.4744 64.6165 55.8105 63.8134V61.1453C55.8105 59.8253 56.9006 58.7352 58.2494 58.7352H64.4762C65.7962 58.7352 66.9151 59.8253 66.9151 61.1453V63.8134C65.2512 64.5884 64.1035 66.2523 64.1035 68.2031V78.7338C64.1035 79.3935 64.6485 79.9104 65.3089 79.9104H78.7946C79.4543 79.9104 80 79.3653 80 78.7338V68.2031C80 65.535 77.8192 63.383 75.151 63.383H69.2081V61.1453C69.2081 58.4483 67.0273 56.2963 64.388 56.2963H58.1613C57.2716 56.2963 56.4397 56.5544 55.7224 56.9848V46.9134L76.2662 46.9141ZM13.4578 77.5009H2.41098V68.2045C2.41098 66.8845 3.50105 65.7945 4.82103 65.7945H11.0478C12.3678 65.7945 13.4867 66.8845 13.4867 68.2045L13.486 77.5009H13.4578ZM77.5009 68.1757V77.4721H66.4251V68.1757C66.4251 66.8556 67.5152 65.7656 68.8641 65.7656H75.0619C76.382 65.7944 77.5009 66.8557 77.5009 68.1757ZM2.4118 4.82126V3.61589C2.4118 2.95621 2.95683 2.43934 3.61717 2.43934H76.2681C76.9278 2.43934 77.5017 2.98438 77.5017 3.61589V4.84943C77.5017 5.53793 76.9566 6.08297 76.2681 6.08297L3.61553 6.08361C2.95585 6.05479 2.41079 5.50975 2.41079 4.82125L2.4118 4.82126ZM4.82185 44.503V8.46447H75.0626V44.503H55.7529V41.806H58.1061C58.7658 41.806 59.3396 41.261 59.3396 40.6295V33.1981C59.3396 32.5384 58.7946 32.0216 58.1061 32.0216H41.1477V28.9231C42.0373 28.4927 42.6681 27.546 42.6681 26.4841C42.6681 25.0207 41.4346 23.7583 39.9423 23.7583C38.45 23.7583 37.2164 25.0207 37.2164 26.4841C37.2164 27.5742 37.848 28.4927 38.7369 28.9231V32.0216H21.7801C21.0916 32.0216 20.5466 32.5666 20.5466 33.1981V40.6295C20.5466 41.261 21.0916 41.806 21.7801 41.806H24.1044V44.503H4.82185ZM22.9838 39.396V34.4035H56.899V39.396H22.9838ZM34.8057 77.5004H23.7588V68.204C23.7588 66.884 24.8489 65.794 26.1977 65.794H32.4245C33.7445 65.794 34.8345 66.884 34.8345 68.204V77.5004H34.8057ZM43.0403 56.297H36.8424C34.1743 56.297 31.9934 58.449 31.9934 61.146V63.3837H26.5706V41.8065H53.3404V63.3837H47.8887V61.146C47.8894 58.449 45.7086 56.297 43.0398 56.297H43.0403ZM56.1533 77.5004H45.1065V68.204C45.1065 66.884 46.1966 65.794 47.5454 65.794H53.7433C55.0633 65.794 56.1822 66.884 56.1822 68.204V77.5004H56.1533Z" fill="#007DC3"/>
</svg>
