<svg width="90" height="41" viewBox="0 0 90 41" fill="none" xmlns="http://www.w3.org/2000/svg">
<path d="M0.0905533 12.975L4.59055 0.975C4.81288 0.389057 5.37402 0.000668572 6.00082 0H59.85C62.232 0.00200897 64.5422 0.810942 66.4051 2.29491L78.7051 12.1346L82.3802 13.1993V13.2C84.5712 13.8314 86.4984 15.1573 87.8726 16.9774C89.2467 18.7975 89.9933 21.0147 90 23.2949V34.5C90 34.8977 89.842 35.2794 89.5607 35.5607C89.2795 35.8419 88.8978 36 88.5 36H83.3698C82.5857 37.7899 81.1339 39.2036 79.3238 39.9394C77.5131 40.6747 75.4867 40.6747 73.6761 39.9394C71.8659 39.2035 70.4143 37.7899 69.63 36H24.87C24.0276 37.938 22.405 39.4292 20.4034 40.1062C18.4018 40.7839 16.2073 40.5837 14.3612 39.5558C12.5149 38.5279 11.1884 36.768 10.7103 34.7102L1.23014 32.9705V32.9698C0.519653 32.8399 0.00268555 32.2225 7.62939e-06 31.5V13.5C-0.000663757 13.3212 0.0301437 13.1437 0.0897369 12.975L0.0905533 12.975ZM16.5009 2.99992H7.03616L3.66106 11.9999H15.0007C15.8291 11.9999 16.5007 11.3283 16.5007 10.4999L16.5009 2.99992ZM48.0009 2.99992H25.5009V11.9999H48.0009V2.99992ZM64.5311 4.64992C63.2039 3.58384 61.5532 3.00125 59.8509 2.99992H57.0009V10.4999C57.0009 10.8977 57.159 11.2794 57.4402 11.5606C57.7214 11.8419 58.1031 11.9999 58.5009 11.9999H73.7258L64.5311 4.64992ZM87.0002 23.2945C86.9976 22.5144 86.871 21.7396 86.6252 20.9996H83.4303L84.9303 23.9996H87.0002L87.0002 23.2945ZM76.5002 37.4996C77.6935 37.4996 78.8387 37.0255 79.6823 36.1817C80.5259 35.338 81.0001 34.1928 81.0001 32.9997C81.0001 31.8065 80.526 30.6612 79.6823 29.8176C78.8385 28.974 77.6934 28.4998 76.5002 28.4998C75.3071 28.4998 74.1618 28.9739 73.3182 29.8176C72.4746 30.6614 72.0003 31.8065 72.0003 32.9997C72.0037 34.1923 72.4791 35.3347 73.3222 36.1778C74.1653 37.0209 75.3077 37.4963 76.5003 37.4997L76.5002 37.4996ZM51.0002 32.9996H69.0002C69.0002 30.3203 70.4299 27.844 72.7502 26.5047C75.0705 25.1647 77.9299 25.1647 80.2502 26.5047C82.5705 27.844 84.0002 30.3203 84.0002 32.9996H87.0002V26.9996H84.0002C83.433 27.0063 82.9134 26.6849 82.665 26.1746L79.665 20.1746C79.4313 19.7105 79.4547 19.1581 79.7266 18.7148C79.9984 18.2721 80.4806 18.0009 81.0002 17.9996H84.7951C83.8972 17.0935 82.7815 16.4326 81.5555 16.0797L77.7901 14.9996H58.5009C57.3083 14.9963 56.1659 14.5208 55.3228 13.6777C54.4797 12.8347 54.0043 11.6923 54.0009 10.4996V2.99962H51.0009L51.0002 32.9996ZM48.0002 32.9996V14.9996H25.5002V21.8848L36.615 32.9996H48.0002ZM18.0002 37.4996C19.1935 37.4996 20.3387 37.0255 21.1823 36.1817C22.0259 35.338 22.5001 34.1928 22.5001 32.9997C22.5001 31.8065 22.026 30.6612 21.1823 29.8176C20.3385 28.974 19.1934 28.4998 18.0002 28.4998C16.8071 28.4998 15.6618 28.9739 14.8182 29.8176C13.9746 30.6614 13.5003 31.8065 13.5003 32.9997C13.5036 34.1923 13.9791 35.3347 14.8222 36.1778C15.6653 37.0209 16.8077 37.4963 18.0003 37.4997L18.0002 37.4996ZM3.00021 22.4996H5.58038L4.83038 19.4996H3.00021V22.4996ZM3.00021 16.4996H6.00021C6.68926 16.5002 7.28994 16.9703 7.45535 17.6393L8.95535 23.6393C9.06383 24.088 8.96472 24.5621 8.68549 24.9297C8.39887 25.292 7.96159 25.5022 7.50021 25.4996H3.00021V30.2547L10.6355 31.6495C11.1076 29.1912 12.7749 27.1315 15.0806 26.1564C17.3855 25.1821 20.0253 25.4218 22.1172 26.7959C24.2099 28.1694 25.4788 30.4964 25.5002 32.9996H32.3855L22.9355 23.5643C22.6589 23.2784 22.5029 22.8974 22.5002 22.4996V2.99961H19.5002V10.4996C19.4968 11.6922 19.0214 12.8346 18.1783 13.6777C17.3352 14.5208 16.1928 14.9962 15.0002 14.9996H3.00021V16.4996Z" fill="#007DC3"/>
<path d="M57.002 16.5H60.002C60.8303 16.5 61.502 17.1717 61.502 18C61.502 18.8283 60.8303 19.5 60.002 19.5H57.002C56.1736 19.5 55.502 18.8283 55.502 18C55.502 17.1717 56.1736 16.5 57.002 16.5Z" fill="#007DC3"/>
<path d="M42.0039 16.5H45.0039C45.8322 16.5 46.5039 17.1717 46.5039 18C46.5039 18.8283 45.8322 19.5 45.0039 19.5H42.0039C41.1756 19.5 40.5039 18.8283 40.5039 18C40.5039 17.1717 41.1756 16.5 42.0039 16.5Z" fill="#007DC3"/>
</svg>
