<svg width="80" height="70" viewBox="0 0 80 70" fill="none" xmlns="http://www.w3.org/2000/svg">
<path d="M73.4614 53.3323V7.99943C73.4614 6.99943 72.7945 6.33257 71.7945 6.33257C70.7945 6.33257 70.1277 6.99943 70.1277 7.99943L70.1282 14.8326H62.7951L62.9619 11.9994H65.2951C67.6282 11.9994 69.6282 9.99943 69.6282 7.66629C69.6282 5.33314 67.6282 3.33314 65.2951 3.33314H63.4619C63.1288 1.33314 61.6288 0 59.7951 0H50.6282C48.4614 0 46.6282 1.83314 46.7951 4L47.6282 14.8331H39.2951V11.8331L43.2945 6.99943C44.1277 5.99943 43.4614 4.33257 41.9614 4.33257H18.4614C16.9614 4.33257 16.2945 5.99943 17.1282 6.99943L21.1282 11.8326V14.8326H12.6282V7.99943C12.6282 7.33257 12.1282 6.83257 11.6282 6.49943L2.29451 2.49943C1.46137 2.16629 0.461371 2.49943 0.127657 3.33257C-0.205486 4.16571 0.127657 5.16571 0.9608 5.49943L9.29394 8.99943V53.1666C5.62709 53.9997 2.79394 57.3334 2.79394 61.1666C2.79394 65.6666 6.4608 69.3334 10.9608 69.3334C15.4608 69.3334 19.1277 65.6666 19.1277 61.1666C19.1277 57.1666 16.2945 53.8334 12.6277 53.1666V44.9997H70.1277V53.1666C66.4608 53.9997 63.6277 57.3334 63.6277 61.1666C63.6277 65.6666 67.2945 69.3334 71.7945 69.3334C76.2945 69.3329 79.9614 65.9997 79.9614 61.4997C79.9614 57.4997 77.1282 54.166 73.4614 53.3329L73.4614 53.3323ZM66.2945 7.66514C66.2945 8.16514 65.7945 8.66514 65.2945 8.66514H63.1277L63.2945 6.66514H65.2945C65.7945 6.66514 66.2945 7.16514 66.2945 7.66514ZM50.1288 3.832C50.1288 3.49886 50.2957 3.332 50.6288 3.332H59.7957C60.1288 3.332 60.2957 3.49886 60.2957 3.832L59.2951 14.832H50.962L50.1288 3.832ZM38.462 7.49886L36.7951 9.49886H23.6282L21.9614 7.49886H38.462ZM24.6288 12.832H35.962V14.832H24.6288V12.832ZM15.7951 61.4991C15.7951 64.166 13.6282 66.3323 10.962 66.3323C8.2951 66.3323 6.12881 64.1654 6.12881 61.4991C6.12881 58.8323 8.12881 56.4991 10.962 56.4991C13.6288 56.4991 15.7951 58.6654 15.7951 61.4991ZM12.6288 41.832V18.1649H70.1288V41.832H12.6288ZM71.7945 66.332C69.1277 66.332 66.9614 64.1651 66.9614 61.4989C66.9614 58.832 69.1282 56.6657 71.7945 56.6657C74.4614 56.6657 76.6277 58.8326 76.6277 61.4989C76.6282 64.1651 74.4614 66.332 71.7945 66.332Z" fill="#007DC3"/>
</svg>
