<svg width="30" height="30" viewBox="0 0 30 30" fill="none" xmlns="http://www.w3.org/2000/svg">
<path d="M15 30C23.2843 30 30 23.2843 30 15C30 6.71573 23.2843 0 15 0C6.71573 0 0 6.71573 0 15C0 23.2843 6.71573 30 15 30Z" fill="white"/>
<path fill-rule="evenodd" clip-rule="evenodd" d="M6.79173 14.8429C11.1645 12.9378 14.0804 11.6818 15.5394 11.0749C19.7051 9.34227 20.5706 9.04129 21.1348 9.03136C21.2589 9.02917 21.5363 9.05992 21.7161 9.20575C21.8678 9.32889 21.9096 9.49522 21.9296 9.61197C21.9495 9.72872 21.9744 9.99467 21.9546 10.2025C21.7289 12.5743 20.7521 18.3302 20.2552 20.9867C20.0449 22.1108 19.6309 22.4877 19.2301 22.5246C18.359 22.6047 17.6976 21.9489 16.8539 21.3958C15.5337 20.5304 14.7879 19.9917 13.5064 19.1473C12.0254 18.1713 12.9855 17.6349 13.8295 16.7583C14.0503 16.5289 17.8883 13.0379 17.9626 12.7213C17.9719 12.6817 17.9805 12.534 17.8928 12.4561C17.8051 12.3781 17.6757 12.4048 17.5822 12.426C17.4498 12.456 15.3408 13.85 11.2552 16.6079C10.6565 17.019 10.1143 17.2193 9.62847 17.2088C9.09289 17.1972 8.06266 16.906 7.29678 16.657C6.35741 16.3517 5.61081 16.1902 5.67582 15.6716C5.70968 15.4015 6.08165 15.1253 6.79173 14.8429Z" fill="#151515"/>
</svg>
