<svg width="22" height="22" viewBox="0 0 22 22" fill="none" xmlns="http://www.w3.org/2000/svg">
<path d="M0.503906 21.3735L1.98686 15.9826C1.07197 14.4049 0.590851 12.6149 0.591428 10.7816C0.593827 5.04558 5.28281 0.378906 11.0441 0.378906C13.8403 0.380163 16.4648 1.46359 18.438 3.42997C20.4116 5.39634 21.4979 8.01006 21.4967 10.7898C21.4943 16.526 16.8051 21.1931 11.0445 21.1931C11.0441 21.1931 11.0448 21.1931 11.0445 21.1931H11.0399C9.29055 21.1925 7.57169 20.7553 6.04507 19.927L0.503906 21.3735V21.3735Z" fill="#39C650"/>
<path fill-rule="evenodd" clip-rule="evenodd" d="M8.33862 6.2725C8.13598 5.82394 7.92262 5.81496 7.72983 5.80711C7.57214 5.80037 7.39161 5.80079 7.21137 5.80079C7.03099 5.80079 6.73786 5.86828 6.48998 6.1378C6.24195 6.40733 5.54297 7.0589 5.54297 8.38407C5.54297 9.70939 6.51253 10.99 6.64767 11.1698C6.78296 11.3494 8.51929 14.1558 11.2691 15.2354C13.5545 16.1327 14.0196 15.9542 14.5156 15.9093C15.0117 15.8644 16.1162 15.2579 16.3417 14.6289C16.5672 14 16.5672 13.461 16.4996 13.3483C16.4319 13.2361 16.2515 13.1687 15.981 13.034C15.7104 12.8993 14.3803 12.2476 14.1323 12.1578C13.8843 12.068 13.7039 12.0231 13.5235 12.2928C13.3431 12.5622 12.8249 13.1687 12.6671 13.3483C12.5093 13.5283 12.3514 13.5508 12.0809 13.4161C11.8103 13.281 10.939 12.9968 9.90528 12.0792C9.10103 11.3654 8.55804 10.4837 8.4002 10.214C8.24237 9.94465 8.38328 9.79874 8.519 9.66446C8.64047 9.54379 8.78958 9.35003 8.92487 9.19275C9.05986 9.03546 9.10496 8.92322 9.19515 8.74363C9.28534 8.56375 9.24025 8.40649 9.1726 8.27179C9.10496 8.1371 8.57918 6.80509 8.33862 6.2725V6.2725Z" fill="white"/>
</svg>
