<svg width="20" height="20" viewBox="0 0 20 20" fill="none" xmlns="http://www.w3.org/2000/svg">
<path d="M0 20L1.4127 14.8645C0.541152 13.3615 0.0828258 11.6563 0.0833757 9.90991C0.0856612 4.44559 4.5525 0 10.0408 0C12.7046 0.00119757 15.2047 1.0333 17.0844 2.90652C18.9646 4.77973 19.9994 7.26964 19.9983 9.91766C19.996 15.3821 15.5289 19.8281 10.0412 19.8281C10.0408 19.8281 10.0415 19.8281 10.0412 19.8281H10.0368C8.37037 19.8276 6.73295 19.4111 5.27865 18.622L0 20Z" fill="white"/>
<path fill-rule="evenodd" clip-rule="evenodd" d="M7.58056 5.70276C7.39634 5.29497 7.20238 5.28681 7.02711 5.27968C6.88376 5.27355 6.71964 5.27393 6.55579 5.27393C6.39181 5.27393 6.12533 5.33528 5.89998 5.58031C5.6745 5.82534 5.03906 6.41767 5.03906 7.62237C5.03906 8.82721 5.92048 9.99135 6.04334 10.1549C6.16633 10.3181 7.74481 12.8694 10.2447 13.8509C12.3223 14.6665 12.7451 14.5043 13.196 14.4635C13.647 14.4227 14.6511 13.8713 14.8561 13.2995C15.0611 12.7278 15.0611 12.2377 14.9996 12.1353C14.9381 12.0333 14.7741 11.972 14.5281 11.8496C14.2822 11.7272 13.073 11.1347 12.8476 11.0531C12.6221 10.9714 12.4581 10.9306 12.2941 11.1758C12.1301 11.4207 11.659 11.972 11.5156 12.1353C11.3721 12.2989 11.2286 12.3194 10.9826 12.1969C10.7366 12.0741 9.9445 11.8158 9.0048 10.9816C8.27366 10.3326 7.78003 9.53112 7.63655 9.28598C7.49306 9.04108 7.62117 8.90843 7.74455 8.78636C7.85498 8.67666 7.99053 8.50052 8.11351 8.35753C8.23624 8.21455 8.27724 8.11251 8.35923 7.94924C8.44122 7.78572 8.40022 7.64275 8.33873 7.5203C8.27724 7.39785 7.79925 6.18693 7.58056 5.70276Z" fill="#25D366"/>
</svg>
