<svg width="30" height="30" viewBox="0 0 30 30" fill="none" xmlns="http://www.w3.org/2000/svg">
<path d="M0 30L2.11904 22.2967C0.811727 20.0422 0.124239 17.4844 0.125064 14.8649C0.128492 6.66839 6.82875 0 15.0613 0C19.0569 0.00179636 22.8071 1.54995 25.6267 4.35979C28.4469 7.1696 29.9991 10.9045 29.9974 14.8765C29.994 23.0732 23.2933 29.7421 15.0619 29.7421C15.0613 29.7421 15.0623 29.7421 15.0619 29.7421H15.0552C12.5556 29.7414 10.0994 29.1166 7.91798 27.933L0 30Z" fill="white"/>
<path fill-rule="evenodd" clip-rule="evenodd" d="M11.3708 8.5534C11.0945 7.94173 10.8036 7.92948 10.5407 7.91878C10.3256 7.9096 10.0795 7.91016 9.83368 7.91016C9.58771 7.91016 9.18799 8.00219 8.84997 8.36973C8.51175 8.73727 7.55859 9.62577 7.55859 11.4328C7.55859 13.2401 8.88072 14.9863 9.06501 15.2316C9.24949 15.4765 11.6172 19.3033 15.367 20.7756C18.4834 21.9991 19.1176 21.7557 19.794 21.6945C20.4705 21.6333 21.9767 20.8062 22.2842 19.9485C22.5916 19.0909 22.5916 18.3559 22.4994 18.2022C22.4071 18.0492 22.1612 17.9573 21.7922 17.7737C21.4232 17.59 19.6096 16.7013 19.2713 16.5789C18.9331 16.4564 18.6871 16.3952 18.4412 16.7629C18.1952 17.1303 17.4886 17.9573 17.2733 18.2022C17.0581 18.4477 16.8429 18.4783 16.4739 18.2946C16.1049 18.1104 14.9168 17.7229 13.5072 16.4717C12.4105 15.4982 11.6701 14.2959 11.4548 13.9282C11.2396 13.5609 11.4317 13.3619 11.6168 13.1788C11.7825 13.0143 11.9858 12.75 12.1703 12.5356C12.3544 12.3211 12.4159 12.168 12.5388 11.9231C12.6618 11.6778 12.6003 11.4634 12.5081 11.2797C12.4159 11.096 11.6989 9.27966 11.3708 8.5534V8.5534Z" fill="#151515"/>
</svg>
