<svg width="32" height="32" viewBox="0 0 32 32" fill="none" xmlns="http://www.w3.org/2000/svg">
<path d="M0.732422 31.0884L2.88944 23.247C1.5587 20.9522 0.858887 18.3485 0.859727 15.682C0.863216 7.33867 7.68355 0.550781 16.0636 0.550781C20.1308 0.55261 23.9482 2.12851 26.8183 4.9887C29.6891 7.84886 31.2691 11.6506 31.2675 15.6939C31.264 24.0374 24.4432 30.8259 16.0642 30.8259C16.0636 30.8259 16.0646 30.8259 16.0642 30.8259H16.0574C13.513 30.8251 11.0128 30.1892 8.7923 28.9843L0.732422 31.0884Z" fill="#39C650"/>
<path fill-rule="evenodd" clip-rule="evenodd" d="M12.1289 9.12461C11.8341 8.47215 11.5238 8.45909 11.2434 8.44768C11.014 8.43788 10.7514 8.43848 10.4893 8.43848C10.2269 8.43848 9.80053 8.53665 9.43997 8.92869C9.07921 9.32073 8.0625 10.2685 8.0625 12.196C8.0625 14.1237 9.47277 15.9864 9.66934 16.248C9.86612 16.5092 12.3917 20.5912 16.3915 22.1616C19.7156 23.4667 20.3921 23.2071 21.1136 23.1418C21.8352 23.0765 23.4418 22.1942 23.7698 21.2793C24.0977 20.3646 24.0977 19.5806 23.9993 19.4167C23.901 19.2534 23.6386 19.1555 23.245 18.9596C22.8515 18.7636 20.9169 17.8157 20.5561 17.6851C20.1953 17.5545 19.9329 17.4892 19.6706 17.8814C19.4082 18.2733 18.6545 19.1555 18.4249 19.4167C18.1953 19.6785 17.9657 19.7112 17.5722 19.5153C17.1786 19.3187 15.9112 18.9055 14.4077 17.5708C13.2379 16.5324 12.4481 15.25 12.2185 14.8578C11.9889 14.4659 12.1939 14.2537 12.3913 14.0584C12.568 13.8829 12.7848 13.601 12.9816 13.3722C13.178 13.1435 13.2436 12.9802 13.3748 12.719C13.506 12.4573 13.4404 12.2286 13.342 12.0327C13.2436 11.8368 12.4788 9.89928 12.1289 9.12461Z" fill="white"/>
</svg>
